<svg xmlns="http://www.w3.org/2000/svg" version="1.1" xmlns:xlink="http://www.w3.org/1999/xlink" xmlns:svgjs="http://svgjs.dev/svgjs" width="1500" height="1500" viewBox="0 0 1500 1500"><g transform="matrix(1,0,0,1,-0.323615160350073,-0.3236151603499593)"><svg viewBox="0 0 343 343" data-background-color="#000000" preserveAspectRatio="xMidYMid meet" height="1500" width="1500" xmlns="http://www.w3.org/2000/svg" xmlns:xlink="http://www.w3.org/1999/xlink"><g id="tight-bounds" transform="matrix(1,0,0,1,0.0740000000000407,0.07400000000001228)"><svg viewBox="0 0 342.85155851775386 342.85155851775386" height="342.85155851775386" width="342.85155851775386"><rect width="342.852" height="342.852" fill="url(#51eb0979-3092-4c9e-acb9-65377e2be83d)" mask="url(#01605fe9-999f-4eaf-bf42-9f74c821d63a)" data-fill-palette-color="tertiary"></rect><g><svg></svg></g><g><svg viewBox="0 0 342.85155851775386 342.85155851775386" height="342.85155851775386" width="342.85155851775386"><g><path d="M0 171.426c0-94.676 76.75-171.426 171.426-171.426 94.676 0 171.426 76.75 171.426 171.426 0 94.676-76.75 171.426-171.426 171.426-94.676 0-171.426-76.75-171.426-171.426zM171.426 337.383c91.656 0 165.958-74.302 165.957-165.957 0-91.656-74.302-165.958-165.957-165.958-91.656 0-165.958 74.302-165.958 165.958 0 91.656 74.302 165.958 165.958 165.957z" data-fill-palette-color="tertiary" fill="url(#51eb0979-3092-4c9e-acb9-65377e2be83d)" stroke="transparent"></path><ellipse rx="164.56874808852186" ry="164.56874808852186" cx="171.42577925887693" cy="171.42577925887693" fill="url(#51eb0979-3092-4c9e-acb9-65377e2be83d)" stroke="transparent" stroke-width="0" fill-opacity="1" data-fill-palette-color="tertiary"></ellipse></g><g transform="matrix(1,0,0,1,64.84655864529837,106.30441752304606)"><svg viewBox="0 0 213.1584412271571 130.24272347166175" height="130.24272347166175" width="213.1584412271571"><g><svg viewBox="0 0 213.1584412271571 130.24272347166175" height="130.24272347166175" width="213.1584412271571"><g><svg viewBox="0 0 213.1584412271571 130.24272347166175" height="130.24272347166175" width="213.1584412271571"><g><svg viewBox="0 0 213.1584412271571 130.24272347166175" height="130.24272347166175" width="213.1584412271571"><g id="textblocktransform"><svg viewBox="0 0 213.1584412271571 130.24272347166175" height="130.24272347166175" width="213.1584412271571" id="textblock"><g><svg viewBox="0 0 213.1584412271571 130.24272347166175" height="130.24272347166175" width="213.1584412271571"><g transform="matrix(1,0,0,1,0,0)"><svg width="213.1584412271571" viewBox="0.7500000000000022 -39.99999999999999 142.55 84.1" height="130.24272347166175" data-palette-color="#000000"><svg></svg><svg></svg><g class="wordmark-text-0" data-fill-palette-color="quaternary" id="text-0"><path d="M9.9-21.2l15.25-17.9c0.5-0.6 1.067-0.9 1.7-0.9v0c0.7 0 1.417 0.317 2.15 0.95v0c0.367 0.367 0.677 0.733 0.93 1.1 0.247 0.367 0.37 0.733 0.37 1.1v0c0 0.6-0.217 1.117-0.65 1.55v0l-6.7 7.8-13.05 15.35v10.05c0 1.6-1 2.4-3 2.4v0c-1.967 0-2.95-0.8-2.95-2.4v0-35.45c0-1.6 0.983-2.4 2.95-2.4v0c2 0 3 0.8 3 2.4v0zM27.55-1.5l-9.5-13.85c-0.333-0.467-0.5-1.033-0.5-1.7v0c0-1 0.417-1.8 1.25-2.4v0h-0.05c0.667-0.467 1.333-0.7 2-0.7v0c0.633 0 1.167 0.367 1.6 1.1v0l9.65 14.1-0.05-0.05c0.3 0.467 0.45 0.967 0.45 1.5v0c0 0.867-0.433 1.633-1.3 2.3v0h0.05c-0.367 0.233-0.717 0.417-1.05 0.55-0.333 0.133-0.633 0.2-0.9 0.2v0c-0.267 0-0.54-0.1-0.82-0.3-0.287-0.2-0.563-0.45-0.83-0.75zM60.7-1.2l-11-33.6-10.95 33.6v-0.05c-0.2 0.5-0.473 0.907-0.82 1.22-0.353 0.32-0.78 0.48-1.28 0.48v0c-0.267 0-0.523-0.023-0.77-0.07-0.253-0.053-0.513-0.113-0.78-0.18v0h0.05c-1.9-0.6-2.6-1.667-2.1-3.2v0l11.4-34.65c0.167-0.533 0.46-0.983 0.88-1.35 0.413-0.367 0.903-0.583 1.47-0.65v0c0.567-0.1 1.117-0.177 1.65-0.23 0.533-0.047 0.95-0.07 1.25-0.07v0c0.3 0 0.717 0.023 1.25 0.07 0.533 0.053 1.083 0.113 1.65 0.18v0c0.467 0.067 0.927 0.317 1.38 0.75 0.447 0.433 0.787 0.867 1.02 1.3v0c1.867 5.733 3.76 11.507 5.68 17.32 1.913 5.82 3.803 11.597 5.67 17.33v0c0.467 1.533-0.233 2.6-2.1 3.2v0c-0.267 0.067-0.507 0.127-0.72 0.18-0.22 0.047-0.463 0.07-0.73 0.07v0c-0.467 0-0.89-0.16-1.27-0.48-0.387-0.313-0.663-0.72-0.83-1.22v0zM53.45-12v0c0 1.067-0.373 1.973-1.12 2.72-0.753 0.753-1.663 1.13-2.73 1.13v0c-1.067 0-1.967-0.377-2.7-1.13-0.733-0.747-1.1-1.653-1.1-2.72v0c0-1.067 0.367-1.977 1.1-2.73 0.733-0.747 1.633-1.12 2.7-1.12v0c1.067 0 1.977 0.373 2.73 1.12 0.747 0.753 1.12 1.663 1.12 2.73zM81.7-5h6.8c1.233 0 2.1-0.35 2.6-1.05 0.5-0.7 0.75-1.483 0.75-2.35v0-22.9c0-0.833-0.25-1.6-0.75-2.3-0.5-0.7-1.367-1.05-2.6-1.05v0h-11.7l-0.05 32.6c0 0.733-0.283 1.317-0.85 1.75-0.567 0.433-1.267 0.65-2.1 0.65v0c-1.967 0-2.95-0.8-2.95-2.4v0-34.65c0-1.2 0.31-2 0.93-2.4 0.613-0.4 1.353-0.6 2.22-0.6v0h15.75c0.867 0 1.767 0.183 2.7 0.55 0.933 0.367 1.833 0.833 2.7 1.4v0h-0.05c0.867 0.633 1.533 1.46 2 2.48 0.467 1.013 0.7 2.187 0.7 3.52v0 23.75c0 2.7-0.9 4.717-2.7 6.05v0c-0.867 0.633-1.757 1.123-2.67 1.47-0.92 0.353-1.813 0.53-2.68 0.53v0h-8.4c-0.567 0-1.007-0.233-1.32-0.7-0.32-0.467-0.48-1.083-0.48-1.85v0c0-1.667 0.717-2.5 2.15-2.5z" fill="#000000" fill-rule="nonzero" stroke="none" stroke-width="1" stroke-linecap="butt" stroke-linejoin="miter" stroke-miterlimit="10" stroke-dasharray="" stroke-dashoffset="0" font-family="none" font-weight="none" font-size="none" text-anchor="none" style="mix-blend-mode: normal" data-fill-palette-color="quaternary" opacity="1"></path><path d="M17.35 8.9v32.65c0 1.6-1 2.4-3 2.4v0c-1.967 0-2.95-0.8-2.95-2.4v0-32.65h-8.75c-1.2 0-1.833-0.85-1.9-2.55v0c0-1.667 0.633-2.5 1.9-2.5v0h23.45c1.267 0 1.867 0.833 1.8 2.5v0c0 1.7-0.6 2.55-1.8 2.55v0zM39.9 13.45h8c0.867 0 1.76 0.183 2.68 0.55 0.913 0.367 1.803 0.833 2.67 1.4v0h-0.05c0.867 0.633 1.533 1.457 2 2.47 0.467 1.02 0.7 2.197 0.7 3.53v0 14.2c0 2.733-0.9 4.75-2.7 6.05v0c-1.767 1.267-3.533 1.9-5.3 1.9v0h-8c-0.867 0-1.75-0.15-2.65-0.45-0.9-0.3-1.783-0.783-2.65-1.45v0c-1.8-1.267-2.7-3.283-2.7-6.05v0-14.2c0-1.333 0.233-2.51 0.7-3.53 0.467-1.013 1.133-1.837 2-2.47v0h-0.05c0.833-0.567 1.717-1.033 2.65-1.4 0.933-0.367 1.833-0.55 2.7-0.55zM40.8 38.85h6.2c1.233 0 2.11-0.35 2.63-1.05 0.513-0.7 0.77-1.45 0.77-2.25v0-14.1c0-0.833-0.257-1.593-0.77-2.28-0.52-0.68-1.397-1.02-2.63-1.02v0h-6.2c-1.233 0-2.107 0.34-2.62 1.02-0.52 0.687-0.78 1.447-0.78 2.28v0 14.1c0 0.8 0.26 1.55 0.78 2.25 0.513 0.7 1.387 1.05 2.62 1.05zM83.65 17.05l-15.95 18.15v6.35c0 1.567-0.917 2.35-2.75 2.35v0c-1.833 0-2.75-0.783-2.75-2.35v0-35.6c0-1.6 0.917-2.4 2.75-2.4v0c1.833 0 2.75 0.8 2.75 2.4v0 21.2c0.833-1 1.76-2.077 2.78-3.23 1.013-1.147 2.03-2.313 3.05-3.5 1.013-1.18 2.02-2.347 3.02-3.5 1-1.147 1.933-2.22 2.8-3.22v0 0.05c0.6-0.7 1.2-1.05 1.8-1.05v0c0.333 0 0.66 0.073 0.98 0.22 0.313 0.153 0.653 0.363 1.02 0.63v0h-0.05c0.8 0.667 1.2 1.333 1.2 2v0c0 0.233-0.05 0.49-0.15 0.77-0.1 0.287-0.267 0.53-0.5 0.73zM78.9 29.8l5.5 10.4c0.233 0.433 0.35 0.883 0.35 1.35v0c0 0.867-0.5 1.517-1.5 1.95v0c-0.667 0.4-1.267 0.6-1.8 0.6v0c-0.367 0-0.717-0.123-1.05-0.37-0.333-0.253-0.6-0.563-0.8-0.93v0l-5-9.65c-0.3-0.5-0.45-1-0.45-1.5v0c0-0.833 0.433-1.533 1.3-2.1v0c0.233-0.167 0.477-0.317 0.73-0.45 0.247-0.133 0.52-0.233 0.82-0.3v0c0.367-0.067 0.717 0 1.05 0.2 0.333 0.2 0.617 0.467 0.85 0.8zM94.35 21.4v14.15c0 0.8 0.26 1.55 0.78 2.25 0.513 0.7 1.387 1.05 2.62 1.05v0h6.25c1.233 0 2.11-0.31 2.63-0.93 0.513-0.613 0.77-1.32 0.77-2.12v0-0.55c0-1.567 0.917-2.35 2.75-2.35v0c1.833 0 2.75 0.783 2.75 2.35v0 0.6c0 1.4-0.223 2.55-0.67 3.45-0.453 0.9-1.13 1.683-2.03 2.35v0c-1.767 1.267-3.533 1.9-5.3 1.9v0h-8.4c-1.767 0-3.483-0.633-5.15-1.9v0c-0.8-0.667-1.417-1.507-1.85-2.52-0.433-1.02-0.65-2.197-0.65-3.53v0-14.25c0-2.7 0.833-4.7 2.5-6v0c0.833-0.6 1.693-1.077 2.58-1.43 0.88-0.347 1.737-0.52 2.57-0.52v0h8.4c0.8 0 1.683 0.157 2.65 0.47 0.967 0.32 1.867 0.747 2.7 1.28v0c0.8 0.567 1.443 1.35 1.93 2.35 0.48 1 0.72 2.183 0.72 3.55v0 6.75c0 0.767-0.223 1.45-0.67 2.05-0.453 0.6-1.28 0.9-2.48 0.9v0h-10.8c-1.2 0-1.833-0.783-1.9-2.35v0c0-1.567 0.633-2.35 1.9-2.35v0h8.5l-0.05-4.65c0-0.833-0.257-1.593-0.77-2.28-0.52-0.68-1.397-1.02-2.63-1.02v0h-6.25c-1.233 0-2.107 0.34-2.62 1.02-0.52 0.687-0.78 1.447-0.78 2.28zM124.75 21.8v19.65c0 1.6-0.917 2.4-2.75 2.4v0c-1.833 0-2.75-0.8-2.75-2.4v0-20.1c0-1.367 0.217-2.55 0.65-3.55 0.433-1 1.117-1.817 2.05-2.45v0c1.767-1.267 3.533-1.9 5.3-1.9v0h8.05c1.7 0 3.467 0.633 5.3 1.9v0c1.8 1.267 2.7 3.267 2.7 6v0 20.1c0 1.6-0.917 2.4-2.75 2.4v0c-1.833 0-2.75-0.8-2.75-2.4v0-19.65c0-0.867-0.267-1.7-0.8-2.5v0l0.05 0.05c-0.433-0.8-1.317-1.2-2.65-1.2v0h-6.25c-1.367 0-2.267 0.4-2.7 1.2v0c-0.467 0.7-0.7 1.517-0.7 2.45z" fill="#000000" fill-rule="nonzero" stroke="none" stroke-width="1" stroke-linecap="butt" stroke-linejoin="miter" stroke-miterlimit="10" stroke-dasharray="" stroke-dashoffset="0" font-family="none" font-weight="none" font-size="none" text-anchor="none" style="mix-blend-mode: normal" data-fill-palette-color="quaternary" opacity="1"></path></g></svg></g></svg></g></svg></g></svg></g><g></g></svg></g></svg></g></svg></g></svg></g><defs></defs><mask id="01605fe9-999f-4eaf-bf42-9f74c821d63a"><g id="SvgjsG1883"><svg viewBox="0 0 342.85155851775386 342.85155851775386" height="342.85155851775386" width="342.85155851775386"><g><svg></svg></g><g><svg viewBox="0 0 342.85155851775386 342.85155851775386" height="342.85155851775386" width="342.85155851775386"><g><path d="M0 171.426c0-94.676 76.75-171.426 171.426-171.426 94.676 0 171.426 76.75 171.426 171.426 0 94.676-76.75 171.426-171.426 171.426-94.676 0-171.426-76.75-171.426-171.426zM171.426 337.383c91.656 0 165.958-74.302 165.957-165.957 0-91.656-74.302-165.958-165.957-165.958-91.656 0-165.958 74.302-165.958 165.958 0 91.656 74.302 165.958 165.958 165.957z" fill="white" stroke="transparent"></path><ellipse rx="164.56874808852186" ry="164.56874808852186" cx="171.42577925887693" cy="171.42577925887693" fill="white" stroke="transparent" stroke-width="0" fill-opacity="1"></ellipse></g><g transform="matrix(1,0,0,1,64.84655864529837,106.30441752304606)"><svg viewBox="0 0 213.1584412271571 130.24272347166175" height="130.24272347166175" width="213.1584412271571"><g><svg viewBox="0 0 213.1584412271571 130.24272347166175" height="130.24272347166175" width="213.1584412271571"><g><svg viewBox="0 0 213.1584412271571 130.24272347166175" height="130.24272347166175" width="213.1584412271571"><g><svg viewBox="0 0 213.1584412271571 130.24272347166175" height="130.24272347166175" width="213.1584412271571"><g id="SvgjsG1882"><svg viewBox="0 0 213.1584412271571 130.24272347166175" height="130.24272347166175" width="213.1584412271571" id="SvgjsSvg1881"><g><svg viewBox="0 0 213.1584412271571 130.24272347166175" height="130.24272347166175" width="213.1584412271571"><g transform="matrix(1,0,0,1,0,0)"><svg width="213.1584412271571" viewBox="0.7500000000000022 -39.99999999999999 142.55 84.1" height="130.24272347166175" data-palette-color="#000000"><svg></svg><svg></svg><g class="wordmark-text-0" data-fill-palette-color="quaternary" id="SvgjsG1880"><path d="M9.9-21.2l15.25-17.9c0.5-0.6 1.067-0.9 1.7-0.9v0c0.7 0 1.417 0.317 2.15 0.95v0c0.367 0.367 0.677 0.733 0.93 1.1 0.247 0.367 0.37 0.733 0.37 1.1v0c0 0.6-0.217 1.117-0.65 1.55v0l-6.7 7.8-13.05 15.35v10.05c0 1.6-1 2.4-3 2.4v0c-1.967 0-2.95-0.8-2.95-2.4v0-35.45c0-1.6 0.983-2.4 2.95-2.4v0c2 0 3 0.8 3 2.4v0zM27.55-1.5l-9.5-13.85c-0.333-0.467-0.5-1.033-0.5-1.7v0c0-1 0.417-1.8 1.25-2.4v0h-0.05c0.667-0.467 1.333-0.7 2-0.7v0c0.633 0 1.167 0.367 1.6 1.1v0l9.65 14.1-0.05-0.05c0.3 0.467 0.45 0.967 0.45 1.5v0c0 0.867-0.433 1.633-1.3 2.3v0h0.05c-0.367 0.233-0.717 0.417-1.05 0.55-0.333 0.133-0.633 0.2-0.9 0.2v0c-0.267 0-0.54-0.1-0.82-0.3-0.287-0.2-0.563-0.45-0.83-0.75zM60.7-1.2l-11-33.6-10.95 33.6v-0.05c-0.2 0.5-0.473 0.907-0.82 1.22-0.353 0.32-0.78 0.48-1.28 0.48v0c-0.267 0-0.523-0.023-0.77-0.07-0.253-0.053-0.513-0.113-0.78-0.18v0h0.05c-1.9-0.6-2.6-1.667-2.1-3.2v0l11.4-34.65c0.167-0.533 0.46-0.983 0.88-1.35 0.413-0.367 0.903-0.583 1.47-0.65v0c0.567-0.1 1.117-0.177 1.65-0.23 0.533-0.047 0.95-0.07 1.25-0.07v0c0.3 0 0.717 0.023 1.25 0.07 0.533 0.053 1.083 0.113 1.65 0.18v0c0.467 0.067 0.927 0.317 1.38 0.75 0.447 0.433 0.787 0.867 1.02 1.3v0c1.867 5.733 3.76 11.507 5.68 17.32 1.913 5.82 3.803 11.597 5.67 17.33v0c0.467 1.533-0.233 2.6-2.1 3.2v0c-0.267 0.067-0.507 0.127-0.72 0.18-0.22 0.047-0.463 0.07-0.73 0.07v0c-0.467 0-0.89-0.16-1.27-0.48-0.387-0.313-0.663-0.72-0.83-1.22v0zM53.45-12v0c0 1.067-0.373 1.973-1.12 2.72-0.753 0.753-1.663 1.13-2.73 1.13v0c-1.067 0-1.967-0.377-2.7-1.13-0.733-0.747-1.1-1.653-1.1-2.72v0c0-1.067 0.367-1.977 1.1-2.73 0.733-0.747 1.633-1.12 2.7-1.12v0c1.067 0 1.977 0.373 2.73 1.12 0.747 0.753 1.12 1.663 1.12 2.73zM81.7-5h6.8c1.233 0 2.1-0.35 2.6-1.05 0.5-0.7 0.75-1.483 0.75-2.35v0-22.9c0-0.833-0.25-1.6-0.75-2.3-0.5-0.7-1.367-1.05-2.6-1.05v0h-11.7l-0.05 32.6c0 0.733-0.283 1.317-0.85 1.75-0.567 0.433-1.267 0.65-2.1 0.65v0c-1.967 0-2.95-0.8-2.95-2.4v0-34.65c0-1.2 0.31-2 0.93-2.4 0.613-0.4 1.353-0.6 2.22-0.6v0h15.75c0.867 0 1.767 0.183 2.7 0.55 0.933 0.367 1.833 0.833 2.7 1.4v0h-0.05c0.867 0.633 1.533 1.46 2 2.48 0.467 1.013 0.7 2.187 0.7 3.52v0 23.75c0 2.7-0.9 4.717-2.7 6.05v0c-0.867 0.633-1.757 1.123-2.67 1.47-0.92 0.353-1.813 0.53-2.68 0.53v0h-8.4c-0.567 0-1.007-0.233-1.32-0.7-0.32-0.467-0.48-1.083-0.48-1.85v0c0-1.667 0.717-2.5 2.15-2.5z" fill="black" fill-rule="nonzero" stroke="none" stroke-width="1" stroke-linecap="butt" stroke-linejoin="miter" stroke-miterlimit="10" stroke-dasharray="" stroke-dashoffset="0" font-family="none" font-weight="none" font-size="none" text-anchor="none" style="mix-blend-mode: normal" opacity="1"></path><path d="M17.35 8.9v32.65c0 1.6-1 2.4-3 2.4v0c-1.967 0-2.95-0.8-2.95-2.4v0-32.65h-8.75c-1.2 0-1.833-0.85-1.9-2.55v0c0-1.667 0.633-2.5 1.9-2.5v0h23.45c1.267 0 1.867 0.833 1.8 2.5v0c0 1.7-0.6 2.55-1.8 2.55v0zM39.9 13.45h8c0.867 0 1.76 0.183 2.68 0.55 0.913 0.367 1.803 0.833 2.67 1.4v0h-0.05c0.867 0.633 1.533 1.457 2 2.47 0.467 1.02 0.7 2.197 0.7 3.53v0 14.2c0 2.733-0.9 4.75-2.7 6.05v0c-1.767 1.267-3.533 1.9-5.3 1.9v0h-8c-0.867 0-1.75-0.15-2.65-0.45-0.9-0.3-1.783-0.783-2.65-1.45v0c-1.8-1.267-2.7-3.283-2.7-6.05v0-14.2c0-1.333 0.233-2.51 0.7-3.53 0.467-1.013 1.133-1.837 2-2.47v0h-0.05c0.833-0.567 1.717-1.033 2.65-1.4 0.933-0.367 1.833-0.55 2.7-0.55zM40.8 38.85h6.2c1.233 0 2.11-0.35 2.63-1.05 0.513-0.7 0.77-1.45 0.77-2.25v0-14.1c0-0.833-0.257-1.593-0.77-2.28-0.52-0.68-1.397-1.02-2.63-1.02v0h-6.2c-1.233 0-2.107 0.34-2.62 1.02-0.52 0.687-0.78 1.447-0.78 2.28v0 14.1c0 0.8 0.26 1.55 0.78 2.25 0.513 0.7 1.387 1.05 2.62 1.05zM83.65 17.05l-15.95 18.15v6.35c0 1.567-0.917 2.35-2.75 2.35v0c-1.833 0-2.75-0.783-2.75-2.35v0-35.6c0-1.6 0.917-2.4 2.75-2.4v0c1.833 0 2.75 0.8 2.75 2.4v0 21.2c0.833-1 1.76-2.077 2.78-3.23 1.013-1.147 2.03-2.313 3.05-3.5 1.013-1.18 2.02-2.347 3.02-3.5 1-1.147 1.933-2.22 2.8-3.22v0 0.05c0.6-0.7 1.2-1.05 1.8-1.05v0c0.333 0 0.66 0.073 0.98 0.22 0.313 0.153 0.653 0.363 1.02 0.63v0h-0.05c0.8 0.667 1.2 1.333 1.2 2v0c0 0.233-0.05 0.49-0.15 0.77-0.1 0.287-0.267 0.53-0.5 0.73zM78.9 29.8l5.5 10.4c0.233 0.433 0.35 0.883 0.35 1.35v0c0 0.867-0.5 1.517-1.5 1.95v0c-0.667 0.4-1.267 0.6-1.8 0.6v0c-0.367 0-0.717-0.123-1.05-0.37-0.333-0.253-0.6-0.563-0.8-0.93v0l-5-9.65c-0.3-0.5-0.45-1-0.45-1.5v0c0-0.833 0.433-1.533 1.3-2.1v0c0.233-0.167 0.477-0.317 0.73-0.45 0.247-0.133 0.52-0.233 0.82-0.3v0c0.367-0.067 0.717 0 1.05 0.2 0.333 0.2 0.617 0.467 0.85 0.8zM94.35 21.4v14.15c0 0.8 0.26 1.55 0.78 2.25 0.513 0.7 1.387 1.05 2.62 1.05v0h6.25c1.233 0 2.11-0.31 2.63-0.93 0.513-0.613 0.77-1.32 0.77-2.12v0-0.55c0-1.567 0.917-2.35 2.75-2.35v0c1.833 0 2.75 0.783 2.75 2.35v0 0.6c0 1.4-0.223 2.55-0.67 3.45-0.453 0.9-1.13 1.683-2.03 2.35v0c-1.767 1.267-3.533 1.9-5.3 1.9v0h-8.4c-1.767 0-3.483-0.633-5.15-1.9v0c-0.8-0.667-1.417-1.507-1.85-2.52-0.433-1.02-0.65-2.197-0.65-3.53v0-14.25c0-2.7 0.833-4.7 2.5-6v0c0.833-0.6 1.693-1.077 2.58-1.43 0.88-0.347 1.737-0.52 2.57-0.52v0h8.4c0.8 0 1.683 0.157 2.65 0.47 0.967 0.32 1.867 0.747 2.7 1.28v0c0.8 0.567 1.443 1.35 1.93 2.35 0.48 1 0.72 2.183 0.72 3.55v0 6.75c0 0.767-0.223 1.45-0.67 2.05-0.453 0.6-1.28 0.9-2.48 0.9v0h-10.8c-1.2 0-1.833-0.783-1.9-2.35v0c0-1.567 0.633-2.35 1.9-2.35v0h8.5l-0.05-4.65c0-0.833-0.257-1.593-0.77-2.28-0.52-0.68-1.397-1.02-2.63-1.02v0h-6.25c-1.233 0-2.107 0.34-2.62 1.02-0.52 0.687-0.78 1.447-0.78 2.28zM124.75 21.8v19.65c0 1.6-0.917 2.4-2.75 2.4v0c-1.833 0-2.75-0.8-2.75-2.4v0-20.1c0-1.367 0.217-2.55 0.65-3.55 0.433-1 1.117-1.817 2.05-2.45v0c1.767-1.267 3.533-1.9 5.3-1.9v0h8.05c1.7 0 3.467 0.633 5.3 1.9v0c1.8 1.267 2.7 3.267 2.7 6v0 20.1c0 1.6-0.917 2.4-2.75 2.4v0c-1.833 0-2.75-0.8-2.75-2.4v0-19.65c0-0.867-0.267-1.7-0.8-2.5v0l0.05 0.05c-0.433-0.8-1.317-1.2-2.65-1.2v0h-6.25c-1.367 0-2.267 0.4-2.7 1.2v0c-0.467 0.7-0.7 1.517-0.7 2.45z" fill="black" fill-rule="nonzero" stroke="none" stroke-width="1" stroke-linecap="butt" stroke-linejoin="miter" stroke-miterlimit="10" stroke-dasharray="" stroke-dashoffset="0" font-family="none" font-weight="none" font-size="none" text-anchor="none" style="mix-blend-mode: normal" opacity="1"></path></g></svg></g></svg></g></svg></g></svg></g><g></g></svg></g></svg></g></svg></g></svg></g><defs><mask></mask></defs></svg><rect width="342.85155851775386" height="342.85155851775386" fill="black" stroke="none" visibility="hidden"></rect></g></mask><linearGradient x1="0.054" x2="0.941" y1="0.5" y2="0.5" id="51eb0979-3092-4c9e-acb9-65377e2be83d"><stop stop-color="#9c7945" offset="0"></stop><stop stop-color="#faf3aa" offset="0.498"></stop><stop stop-color="#9c7945" offset="1"></stop></linearGradient></svg><rect width="342.85155851775386" height="342.85155851775386" fill="none" stroke="none" visibility="hidden"></rect></g></svg></g></svg>